<?xml version="1.0" encoding="utf-8"?>
<!-- Generator: Adobe Illustrator 17.0.0, SVG Export Plug-In . SVG Version: 6.00 Build 0)  -->
<!DOCTYPE svg PUBLIC "-//W3C//DTD SVG 1.1//EN" "http://www.w3.org/Graphics/SVG/1.1/DTD/svg11.dtd">
<svg version="1.1" id="Layer_1" xmlns="http://www.w3.org/2000/svg" xmlns:xlink="http://www.w3.org/1999/xlink" x="0px" y="0px"
	 width="125px" height="30px" viewBox="0 0 125 30" style="enable-background:new 0 0 125 30;" xml:space="preserve">
<style type="text/css">
	.st0{clip-path:url(#SVGID_2_);fill-rule:evenodd;clip-rule:evenodd;fill:#0856A1;}
	.st1{clip-path:url(#SVGID_2_);fill-rule:evenodd;clip-rule:evenodd;fill:#FFB300;}
</style>
<g>
	<defs>
		<rect id="SVGID_1_" width="121" height="29.9"/>
	</defs>
	<clipPath id="SVGID_2_">
		<use xlink:href="#SVGID_1_"  style="overflow:visible;"/>
	</clipPath>
	<path class="st0" d="M61.4,20.8h2.9V6.6h-2.9V20.8z M85.6,20.8h2.9V6.6h-2.9V20.8z M92.2,6.6h2.4V0.2h2.9v6.3h2.8v2.3h-2.8V15
		c0,1.3,0.4,2.2,1.1,2.7c0.7,0.5,1.9,0.8,3.6,0.8v2.3c-2.5,0-4.4-0.5-5.7-1.5c-1.3-1-1.9-2.4-1.9-4.3V8.8h-2.4V6.6z M105.4,6.6
		l5.7,11.2l5.7-11.2h3.1l-8.5,16.6c-2,3.9-3.9,6.1-8.8,6.1V27c3.4-0.1,4.7-1.9,5.9-4.2l1.1-2.1l-7.3-14.2H105.4z M64.5,1.8
		c0,0.9-0.7,1.6-1.6,1.6c-0.9,0-1.6-0.7-1.6-1.6c0-0.9,0.7-1.6,1.6-1.6C63.8,0.2,64.5,0.9,64.5,1.8z M88.7,1.8
		c0,0.9-0.7,1.6-1.6,1.6c-0.9,0-1.6-0.7-1.6-1.6c0-0.9,0.7-1.6,1.6-1.6C87.9,0.2,88.7,0.9,88.7,1.8z M82.1,7.2
		c-4.2-1.3-9.8-0.8-12.8,1.6C67.8,10,67,11.7,67,13.7c0,1.9,0.7,3.4,2.2,4.7c3.1,2.6,8.7,3.2,12.9,1.8v-2.4
		c-3.6,1.1-11.8,1.3-11.8-4c0-5.5,8.1-5.4,11.8-4.2V7.2z M35.3,18.4h4.4c3.5-0.1,7-1.2,7-4.7c0-3.5-3.4-4.7-6.7-4.9h-4.6V18.4z
		 M49.9,13.7c0,5.3-5.8,7.2-10.2,7.2h-4.4v8.5h-2.8V6.5h7.6C44.5,6.5,49.9,8.4,49.9,13.7z M55.8,0.3L55.8,0.3l0,2l0,14.8
		c0,0,0,0,0,0c0,0.5,0.1,0.9,0.4,1.1c0.3,0.2,0.8,0.3,1.4,0.3h0.1v2.3h-0.1c-0.7,0-1.4-0.1-2-0.3c-0.6-0.2-1.1-0.4-1.5-0.7
		c-0.4-0.3-0.7-0.7-0.9-1.2c-0.2-0.5-0.3-1-0.3-1.5l0-13.9h0V0.3H55.8z"/>
	<path class="st1" d="M11.5,15.8c1.1-1,2.1-1.9,3-2.8c-0.6-0.6-1.2-1.2-1.8-1.8c-0.9,0.9-1.8,1.7-2.8,2.6c-3.4,3-6.4,4.3-9.6,4.3
		l0,2.6C4,20.8,7.6,19.2,11.5,15.8"/>
	<path class="st0" d="M15.2,8.6c-1.1-1.1-2.3-2.3-3.7-3.5C7.6,1.7,4,0.1,0.1,0.1l0,2.6C3.4,2.7,6.3,4,9.8,7c3.5,3.1,5.5,5.6,9.2,8.8
		c3.9,3.4,7.4,4.9,11.3,4.9c0,0,0.1,0,0.1,0l0-2.6c0,0-0.1,0-0.1,0c-3.2,0-6.1-1.3-9.5-4.3c-1.4-1.2-2.5-2.3-3.6-3.4L15.2,8.6"/>
	<path class="st1" d="M17,10.4c1.1-1.1,2.2-2.2,3.6-3.4c3.4-3,6.4-4.3,9.6-4.3c0,0,0.1,0,0.1,0l0-2.6c0,0-0.1,0-0.1,0
		c-3.8,0-7.4,1.6-11.3,4.9c-1.4,1.3-2.6,2.4-3.7,3.5L17,10.4"/>
</g>
</svg>
